<svg xmlns="http://www.w3.org/2000/svg" width="85.333" height="85.333" version="1.0" viewBox="0 0 64 64"><path d="M16.9 3.3C9.5 5.8 3 9.8 3 11.8c0 .8.3 1.2.8 1 .4-.2 4.3-2.1 8.6-4.3 8-4 8.1-4 19.5-4 10.6 0 12.1.2 17.8 2.9 7 3.2 10.8 6.7 9.9 9.1-1 2.7-3.3 2.7-7.3.1-5.9-3.9-11.9-5.6-19.9-5.6-8.4 0-15 1.9-21.1 6.2-5.4 3.7-5.5 5.5-.3 15.1s5.9 10.2 10.4 8.6c2.8-1 3.8-1 5 0 2.4 2 2 5.8-.9 7.7-1.4.9-2.5 2.6-2.5 3.7 0 3.1 4.7 10.4 7.1 11 4.6 1.2 6.4-.9 16.8-18.8 5.7-9.7 10.5-18.6 10.8-19.8.3-1.2 1.6-3.2 2.9-4.5 4.3-4.1 2.8-8.7-4.2-12.8C45 .7 29.3-.9 16.9 3.3zm27.9 19.9c.7.7 1.2 2.6 1.2 4.3 0 1.7-.5 3.6-1.2 4.3-.7.7-2.6 1.2-4.3 1.2-3.9 0-5.5-1.6-5.5-5.5 0-1.7.5-3.6 1.2-4.3.7-.7 2.6-1.2 4.3-1.2 1.7 0 3.6.5 4.3 1.2z"/></svg>